<?xml version="1.0" encoding="utf-8"?>
<!-- Generator: Adobe Illustrator 25.3.1, SVG Export Plug-In . SVG Version: 6.00 Build 0)  -->
<svg version="1.1" xmlns="http://www.w3.org/2000/svg" xmlns:xlink="http://www.w3.org/1999/xlink" x="0px" y="0px"
	 viewBox="0 0 500 500" style="enable-background:new 0 0 500 500;" xml:space="preserve">
<style type="text/css">
	.st0{display:none;}
	.st1{display:inline;}
	.st2{display:inline;fill:#5A48FF;}
	.st3{fill:#FFFFFF;}
	.st4{display:inline;fill:#FFFFFF;}
	.st5{fill:#FF9D00;}
	.st6{fill:#FFFFFF;stroke:#000000;stroke-width:5;stroke-miterlimit:10;}
	.st7{fill:#FF9D00;stroke:#000000;stroke-width:5;stroke-miterlimit:10;}
	.st8{display:inline;fill:#CCCCCC;}
	.st9{display:inline;fill:#3E3BCC;}
	.st10{fill:#CCCCCC;}
	.st11{display:inline;fill:#DDDDDD;}
	.st12{display:inline;fill:#363344;}
	.st13{display:inline;fill:none;stroke:#CCCCCC;stroke-miterlimit:10;}
	.st14{display:inline;fill:#E6E7E8;}
	.st15{display:inline;fill:#FFFFFF;stroke:#000000;stroke-miterlimit:10;}
	.st16{fill:none;stroke:#FFFFFF;stroke-width:2;stroke-linecap:round;stroke-miterlimit:10;}
	.st17{fill:none;stroke:#FFFFFF;stroke-width:14.1389;stroke-linecap:round;stroke-miterlimit:10;}
	.st18{fill:#5A48FF;}
</style>
<g id="Layer_1" class="st0">
	<rect y="0" class="st2" width="500" height="500"/>
	<g class="st1">
		<path class="st3" d="M377.51,339.53c-13.21,0.55-25.79-6.18-32.39-17.69c-7.53-13.06-26.39-13.06-33.92,0
			c-6.32,10.95-18,17.69-30.64,17.69c-15.72,1.22-26.71-15.64-18.72-29.38c0,0,49.36-85.48,49.36-85.48
			c7.53-13.07,26.39-13.07,33.92,0l49.36,85.48C402.02,323.2,392.59,339.53,377.51,339.53z"/>
		<path class="st5" d="M234.79,250c0.42,28.88-44.94,28.88-44.51,0C189.85,221.12,235.21,221.12,234.79,250z"/>
		<path class="st3" d="M234.72,170.49c12.66,5.47,8.73,26.37-4.38,28.01c-12.4-0.39-23.66-9.19-36.91-7.73
			c-46.55-2.23-68.06,46.43-53.15,85.3c11.01,31.61,51.29,41.24,79.68,27.77c16.77-10.08,32.93,17.59,15,26.02
			c-43.66,22.03-105.1,6.05-124.32-41.16C77.76,207.83,154.93,132.64,234.72,170.49z"/>
	</g>
</g>
<g id="Layer_2" class="st0">
</g>
<g id="Layer_3" class="st0">
	<rect class="st2" width="500" height="500"/>
	<path class="st4" d="M187.14,250c0,34.72,28.14,62.87,62.86,62.87c4.04,0,7.98-0.4,11.81-1.13v52.17
		c-3.88,0.4-7.82,0.61-11.81,0.61c-63.25,0-114.51-51.27-114.51-114.52c0-63.24,51.26-114.51,114.51-114.51
		c3.99,0,7.93,0.21,11.81,0.61v52.17c-3.83-0.73-7.77-1.13-11.81-1.13C215.28,187.14,187.14,215.29,187.14,250z"/>
	<path class="st4" d="M230.22,250c0,10.93,8.85,19.78,19.78,19.78c4.43,0,8.51-1.48,11.81-3.94v21.74c-3.73,1.17-7.7,1.8-11.81,1.8
		c-21.75,0-39.38-17.63-39.38-39.38c0-21.74,17.63-39.38,39.38-39.38c4.11,0,8.08,0.64,11.81,1.81v21.74
		c-3.3-2.46-7.38-3.94-11.81-3.94C239.07,230.23,230.22,239.08,230.22,250z"/>
	<circle class="st4" cx="300.37" cy="116.78" r="24.51"/>
</g>
<g id="Layer_4">
	<g>
		<rect y="1.98" class="st18" width="500" height="500"/>
		<g>
			<path d="M311.48,275.72c-9.73-8.95-13.87-22.61-10.39-35.41c3.91-14.56-9.43-27.9-23.99-23.99c-12.21,3.27-25.24-0.22-34.17-9.16
				c-11.98-10.25-7.82-29.94,7.54-34.01c0,0,95.34-25.54,95.34-25.54c14.57-3.92,27.9,9.42,23.99,23.99l-25.54,95.34
				C340.35,281.51,322.14,286.39,311.48,275.72z"/>
			<path class="st6" d="M311.48,246.22c-9.73-8.95-13.87-22.61-10.39-35.41c3.91-14.56-9.43-27.9-23.99-23.99
				c-12.21,3.27-25.24-0.22-34.17-9.16c-11.98-10.25-7.82-29.94,7.54-34.01c0,0,95.34-25.54,95.34-25.54
				c14.57-3.92,27.9,9.42,23.99,23.99l-25.54,95.34C340.35,252.01,322.14,256.89,311.48,246.22z"/>
			<path d="M205.01,376.83c-9.73-8.95-13.87-22.61-10.39-35.41c3.91-14.56-9.43-27.9-23.99-23.99c-12.21,3.27-25.24-0.22-34.17-9.16
				c-11.98-10.25-7.82-29.94,7.54-34.01c0,0,95.34-25.54,95.34-25.54c14.57-3.92,27.9,9.42,23.99,23.99l-25.54,95.34
				C233.89,382.61,215.68,387.49,205.01,376.83z"/>
			<path class="st7" d="M205.01,347.33c-9.73-8.95-13.87-22.61-10.39-35.41c3.91-14.56-9.43-27.9-23.99-23.99
				c-12.21,3.27-25.24-0.22-34.17-9.16c-11.98-10.25-7.82-29.94,7.54-34.01c0,0,95.34-25.54,95.34-25.54
				c14.57-3.92,27.9,9.42,23.99,23.99l-25.54,95.34C233.89,353.12,215.68,358,205.01,347.33z"/>
		</g>
	</g>
</g>
</svg>
