<svg width="1200" height="800" viewBox="0 0 323 110" fill="none" xmlns="http://www.w3.org/2000/svg">
<path d="M108.102 33.9091C108.102 35.0062 107.897 35.9458 107.486 36.728C107.078 37.5069 106.521 38.1035 105.815 38.5178C105.113 38.9321 104.316 39.1392 103.424 39.1392C102.532 39.1392 101.734 38.9321 101.028 38.5178C100.325 38.1001 99.7682 37.5019 99.3572 36.723C98.9496 35.9408 98.7457 35.0028 98.7457 33.9091C98.7457 32.812 98.9496 31.8741 99.3572 31.0952C99.7682 30.313 100.325 29.7147 101.028 29.3004C101.734 28.8861 102.532 28.679 103.424 28.679C104.316 28.679 105.113 28.8861 105.815 29.3004C106.521 29.7147 107.078 30.313 107.486 31.0952C107.897 31.8741 108.102 32.812 108.102 33.9091ZM106.248 33.9091C106.248 33.1368 106.127 32.4856 105.885 31.9553C105.646 31.4216 105.315 31.0189 104.891 30.7472C104.466 30.4721 103.978 30.3345 103.424 30.3345C102.871 30.3345 102.382 30.4721 101.957 30.7472C101.533 31.0189 101.2 31.4216 100.958 31.9553C100.719 32.4856 100.6 33.1368 100.6 33.9091C100.6 34.6813 100.719 35.3343 100.958 35.8679C101.2 36.3982 101.533 36.8009 101.957 37.076C102.382 37.3478 102.871 37.4837 103.424 37.4837C103.978 37.4837 104.466 37.3478 104.891 37.076C105.315 36.8009 105.646 36.3982 105.885 35.8679C106.127 35.3343 106.248 34.6813 106.248 33.9091ZM109.846 39V28.8182H116.369V30.3643H111.691V33.1286H115.921V34.6747H111.691V39H109.846ZM118.049 39V28.8182H124.572V30.3643H119.894V33.1286H124.124V34.6747H119.894V39H118.049ZM128.097 28.8182V39H126.252V28.8182H128.097ZM138.809 32.2536H136.95C136.897 31.9486 136.799 31.6785 136.657 31.4432C136.514 31.2045 136.337 31.0024 136.125 30.8366C135.913 30.6709 135.671 30.5466 135.399 30.4638C135.13 30.3776 134.84 30.3345 134.529 30.3345C133.975 30.3345 133.485 30.4737 133.057 30.7521C132.63 31.0272 132.295 31.4316 132.053 31.9652C131.811 32.4955 131.69 33.1435 131.69 33.9091C131.69 34.688 131.811 35.3442 132.053 35.8778C132.298 36.4081 132.633 36.8092 133.057 37.081C133.485 37.3494 133.974 37.4837 134.524 37.4837C134.829 37.4837 135.114 37.4439 135.379 37.3643C135.647 37.2815 135.888 37.1605 136.1 37.0014C136.315 36.8423 136.496 36.6468 136.642 36.4148C136.791 36.1828 136.894 35.9176 136.95 35.6193L138.809 35.6293C138.74 36.1132 138.589 36.5672 138.357 36.9915C138.128 37.4157 137.828 37.7902 137.457 38.1151C137.086 38.4366 136.652 38.6884 136.154 38.8707C135.657 39.0497 135.105 39.1392 134.499 39.1392C133.604 39.1392 132.805 38.9321 132.103 38.5178C131.4 38.1035 130.846 37.5052 130.442 36.723C130.038 35.9408 129.836 35.0028 129.836 33.9091C129.836 32.812 130.039 31.8741 130.447 31.0952C130.855 30.313 131.41 29.7147 132.113 29.3004C132.815 28.8861 133.611 28.679 134.499 28.679C135.066 28.679 135.593 28.7585 136.08 28.9176C136.567 29.0767 137.001 29.3104 137.382 29.6186C137.764 29.9235 138.077 30.2981 138.322 30.7422C138.571 31.183 138.733 31.6868 138.809 32.2536ZM142.343 28.8182V39H140.498V28.8182H142.343ZM145.648 39H143.679L147.263 28.8182H149.54L153.13 39H151.161L148.442 30.9062H148.362L145.648 39ZM145.712 35.0078H151.082V36.4893H145.712V35.0078ZM154.471 39V28.8182H156.316V37.4538H160.8V39H154.471ZM168.016 39L165.143 28.8182H167.126L168.961 36.3004H169.055L171.014 28.8182H172.819L174.782 36.3054H174.872L176.706 28.8182H178.69L175.817 39H173.997L171.959 31.8558H171.879L169.836 39H168.016ZM179.969 39V28.8182H186.591V30.3643H181.814V33.1286H186.248V34.6747H181.814V37.4538H186.631V39H179.969ZM188.473 39V28.8182H192.371C193.107 28.8182 193.718 28.9342 194.205 29.1662C194.696 29.3949 195.062 29.7081 195.304 30.1058C195.549 30.5036 195.672 30.9543 195.672 31.4581C195.672 31.8724 195.592 32.227 195.433 32.522C195.274 32.8137 195.06 33.0507 194.792 33.233C194.523 33.4152 194.223 33.5462 193.892 33.6257V33.7251C194.253 33.745 194.6 33.8561 194.931 34.0582C195.266 34.2571 195.539 34.5388 195.751 34.9034C195.964 35.268 196.07 35.7088 196.07 36.2259C196.07 36.7528 195.942 37.2268 195.687 37.6477C195.432 38.0653 195.047 38.3951 194.533 38.6371C194.02 38.879 193.373 39 192.594 39H188.473ZM190.317 37.4588H192.301C192.971 37.4588 193.453 37.3312 193.748 37.076C194.046 36.8175 194.195 36.486 194.195 36.0817C194.195 35.7801 194.121 35.5083 193.972 35.2663C193.822 35.0211 193.61 34.8288 193.335 34.6896C193.06 34.5471 192.732 34.4759 192.351 34.4759H190.317V37.4588ZM190.317 33.1484H192.142C192.46 33.1484 192.747 33.0904 193.002 32.9744C193.257 32.8551 193.458 32.6877 193.604 32.4723C193.753 32.2536 193.827 31.995 193.827 31.6967C193.827 31.3023 193.688 30.9775 193.41 30.7223C193.135 30.4671 192.725 30.3395 192.182 30.3395H190.317V33.1484ZM203.208 31.6172C203.161 31.183 202.966 30.8449 202.621 30.603C202.28 30.361 201.835 30.2401 201.289 30.2401C200.904 30.2401 200.574 30.2981 200.299 30.4141C200.024 30.5301 199.814 30.6875 199.668 30.8864C199.522 31.0852 199.447 31.3123 199.444 31.5675C199.444 31.7796 199.492 31.9635 199.588 32.1193C199.688 32.2751 199.822 32.4077 199.991 32.517C200.16 32.6231 200.347 32.7126 200.553 32.7855C200.758 32.8584 200.965 32.9197 201.174 32.9695L202.129 33.2081C202.513 33.2976 202.883 33.4186 203.237 33.571C203.595 33.7235 203.915 33.9157 204.197 34.1477C204.482 34.3797 204.707 34.6598 204.873 34.9879C205.039 35.3161 205.122 35.7005 205.122 36.1413C205.122 36.7379 204.969 37.2633 204.664 37.7173C204.359 38.1681 203.919 38.5211 203.342 38.7763C202.768 39.0282 202.074 39.1541 201.259 39.1541C200.467 39.1541 199.779 39.0315 199.195 38.7862C198.615 38.541 198.161 38.183 197.833 37.7124C197.508 37.2417 197.333 36.6683 197.306 35.9922H199.121C199.147 36.3468 199.257 36.6418 199.449 36.8771C199.641 37.1125 199.892 37.2881 200.2 37.4041C200.511 37.5201 200.859 37.5781 201.244 37.5781C201.645 37.5781 201.996 37.5185 202.298 37.3991C202.603 37.2765 202.841 37.1075 203.014 36.892C203.186 36.6733 203.274 36.4181 203.277 36.1264C203.274 35.8613 203.196 35.6425 203.044 35.4702C202.891 35.2945 202.677 35.1487 202.402 35.0327C202.13 34.9134 201.812 34.8073 201.448 34.7145L200.289 34.4162C199.451 34.2008 198.788 33.8743 198.301 33.4368C197.817 32.996 197.575 32.411 197.575 31.6818C197.575 31.0819 197.737 30.5566 198.062 30.1058C198.39 29.6551 198.836 29.3054 199.399 29.0568C199.963 28.8049 200.601 28.679 201.313 28.679C202.036 28.679 202.669 28.8049 203.213 29.0568C203.759 29.3054 204.189 29.6518 204.5 30.0959C204.812 30.5367 204.972 31.0438 204.982 31.6172H203.208ZM208.61 28.8182V39H206.766V28.8182H208.61ZM210.16 30.3643V28.8182H218.284V30.3643H215.137V39H213.307V30.3643H210.16ZM219.85 39V28.8182H226.472V30.3643H221.694V33.1286H226.129V34.6747H221.694V37.4538H226.512V39H219.85Z" fill="white" fill-opacity="0.85"/>
<path d="M100.023 80V56.7273H104.943V66.3295H114.932V56.7273H119.841V80H114.932V70.3864H104.943V80H100.023ZM131.693 80.3409C129.928 80.3409 128.402 79.9659 127.114 79.2159C125.833 78.4583 124.845 77.4053 124.148 76.0568C123.451 74.7008 123.102 73.1288 123.102 71.3409C123.102 69.5379 123.451 67.9621 124.148 66.6136C124.845 65.2576 125.833 64.2045 127.114 63.4545C128.402 62.697 129.928 62.3182 131.693 62.3182C133.458 62.3182 134.981 62.697 136.261 63.4545C137.549 64.2045 138.542 65.2576 139.239 66.6136C139.936 67.9621 140.284 69.5379 140.284 71.3409C140.284 73.1288 139.936 74.7008 139.239 76.0568C138.542 77.4053 137.549 78.4583 136.261 79.2159C134.981 79.9659 133.458 80.3409 131.693 80.3409ZM131.716 76.5909C132.519 76.5909 133.189 76.3636 133.727 75.9091C134.265 75.447 134.67 74.8182 134.943 74.0227C135.223 73.2273 135.364 72.322 135.364 71.3068C135.364 70.2917 135.223 69.3864 134.943 68.5909C134.67 67.7955 134.265 67.1667 133.727 66.7045C133.189 66.2424 132.519 66.0114 131.716 66.0114C130.905 66.0114 130.223 66.2424 129.67 66.7045C129.125 67.1667 128.712 67.7955 128.432 68.5909C128.159 69.3864 128.023 70.2917 128.023 71.3068C128.023 72.322 128.159 73.2273 128.432 74.0227C128.712 74.8182 129.125 75.447 129.67 75.9091C130.223 76.3636 130.905 76.5909 131.716 76.5909ZM148.273 56.7273V80H143.432V56.7273H148.273ZM160.037 80.3409C158.272 80.3409 156.745 79.9659 155.457 79.2159C154.177 78.4583 153.188 77.4053 152.491 76.0568C151.795 74.7008 151.446 73.1288 151.446 71.3409C151.446 69.5379 151.795 67.9621 152.491 66.6136C153.188 65.2576 154.177 64.2045 155.457 63.4545C156.745 62.697 158.272 62.3182 160.037 62.3182C161.802 62.3182 163.325 62.697 164.605 63.4545C165.893 64.2045 166.885 65.2576 167.582 66.6136C168.279 67.9621 168.628 69.5379 168.628 71.3409C168.628 73.1288 168.279 74.7008 167.582 76.0568C166.885 77.4053 165.893 78.4583 164.605 79.2159C163.325 79.9659 161.802 80.3409 160.037 80.3409ZM160.06 76.5909C160.863 76.5909 161.533 76.3636 162.071 75.9091C162.609 75.447 163.014 74.8182 163.287 74.0227C163.567 73.2273 163.707 72.322 163.707 71.3068C163.707 70.2917 163.567 69.3864 163.287 68.5909C163.014 67.7955 162.609 67.1667 162.071 66.7045C161.533 66.2424 160.863 66.0114 160.06 66.0114C159.249 66.0114 158.567 66.2424 158.014 66.7045C157.469 67.1667 157.056 67.7955 156.776 68.5909C156.503 69.3864 156.366 70.2917 156.366 71.3068C156.366 72.322 156.503 73.2273 156.776 74.0227C157.056 74.8182 157.469 75.447 158.014 75.9091C158.567 76.3636 159.249 76.5909 160.06 76.5909ZM171.866 80V56.7273H176.787V66.3295H186.776V56.7273H191.685V80H186.776V70.3864H176.787V80H171.866ZM200.628 80.3295C199.514 80.3295 198.522 80.1364 197.651 79.75C196.779 79.3561 196.09 78.7765 195.582 78.0114C195.082 77.2386 194.832 76.2765 194.832 75.125C194.832 74.1553 195.01 73.3409 195.366 72.6818C195.723 72.0227 196.207 71.4924 196.821 71.0909C197.435 70.6894 198.132 70.3864 198.912 70.1818C199.7 69.9773 200.526 69.8333 201.389 69.75C202.404 69.6439 203.223 69.5455 203.844 69.4545C204.465 69.3561 204.916 69.2121 205.196 69.0227C205.476 68.8333 205.616 68.553 205.616 68.1818V68.1136C205.616 67.3939 205.389 66.8371 204.935 66.4432C204.488 66.0492 203.851 65.8523 203.026 65.8523C202.154 65.8523 201.461 66.0455 200.946 66.4318C200.431 66.8106 200.09 67.2879 199.923 67.8636L195.446 67.5C195.673 66.4394 196.12 65.5227 196.787 64.75C197.454 63.9697 198.313 63.3712 199.366 62.9545C200.427 62.5303 201.654 62.3182 203.048 62.3182C204.018 62.3182 204.946 62.4318 205.832 62.6591C206.726 62.8864 207.518 63.2386 208.207 63.7159C208.904 64.1932 209.454 64.8068 209.855 65.5568C210.257 66.2992 210.457 67.1894 210.457 68.2273V80H205.866V77.5795H205.73C205.45 78.125 205.075 78.6061 204.605 79.0227C204.135 79.4318 203.571 79.7538 202.912 79.9886C202.253 80.2159 201.491 80.3295 200.628 80.3295ZM202.014 76.9886C202.726 76.9886 203.355 76.8485 203.901 76.5682C204.446 76.2803 204.874 75.8939 205.185 75.4091C205.495 74.9242 205.651 74.375 205.651 73.7614V71.9091C205.499 72.0076 205.291 72.0985 205.026 72.1818C204.768 72.2576 204.476 72.3295 204.151 72.3977C203.825 72.4583 203.499 72.5152 203.173 72.5682C202.848 72.6136 202.552 72.6553 202.287 72.6932C201.719 72.7765 201.223 72.9091 200.798 73.0909C200.374 73.2727 200.045 73.5189 199.81 73.8295C199.575 74.1326 199.457 74.5114 199.457 74.9659C199.457 75.625 199.696 76.1288 200.173 76.4773C200.658 76.8182 201.272 76.9886 202.014 76.9886ZM219.054 69.9091V80H214.213V62.5455H218.827V65.625H219.031C219.418 64.6098 220.065 63.8068 220.974 63.2159C221.884 62.6174 222.986 62.3182 224.281 62.3182C225.493 62.3182 226.55 62.5833 227.452 63.1136C228.353 63.6439 229.054 64.4015 229.554 65.3864C230.054 66.3636 230.304 67.5303 230.304 68.8864V80H225.463V69.75C225.471 68.6818 225.198 67.8485 224.645 67.25C224.092 66.6439 223.33 66.3409 222.361 66.3409C221.709 66.3409 221.134 66.4811 220.634 66.7614C220.141 67.0417 219.755 67.4508 219.474 67.9886C219.202 68.5189 219.062 69.1591 219.054 69.9091ZM240.551 80.2841C239.225 80.2841 238.025 79.9432 236.949 79.2614C235.881 78.572 235.032 77.5606 234.403 76.2273C233.782 74.8864 233.472 73.2424 233.472 71.2955C233.472 69.2955 233.794 67.6326 234.438 66.3068C235.081 64.9735 235.938 63.9773 237.006 63.3182C238.081 62.6515 239.259 62.3182 240.54 62.3182C241.517 62.3182 242.331 62.4848 242.983 62.8182C243.642 63.1439 244.172 63.553 244.574 64.0455C244.983 64.5303 245.294 65.0076 245.506 65.4773H245.653V56.7273H250.483V80H245.71V77.2045H245.506C245.278 77.6894 244.956 78.1705 244.54 78.6477C244.131 79.1174 243.597 79.5076 242.938 79.8182C242.286 80.1288 241.491 80.2841 240.551 80.2841ZM242.085 76.4318C242.866 76.4318 243.525 76.2197 244.062 75.7955C244.608 75.3636 245.025 74.7614 245.312 73.9886C245.608 73.2159 245.756 72.3106 245.756 71.2727C245.756 70.2348 245.612 69.3333 245.324 68.5682C245.036 67.803 244.619 67.2121 244.074 66.7955C243.528 66.3788 242.866 66.1705 242.085 66.1705C241.29 66.1705 240.619 66.3864 240.074 66.8182C239.528 67.25 239.116 67.8485 238.835 68.6136C238.555 69.3788 238.415 70.2652 238.415 71.2727C238.415 72.2879 238.555 73.1856 238.835 73.9659C239.123 74.7386 239.536 75.3447 240.074 75.7841C240.619 76.2159 241.29 76.4318 242.085 76.4318ZM268.986 67.5227L264.554 67.7955C264.478 67.4167 264.315 67.0758 264.065 66.7727C263.815 66.4621 263.486 66.2159 263.077 66.0341C262.675 65.8447 262.194 65.75 261.634 65.75C260.884 65.75 260.251 65.9091 259.736 66.2273C259.221 66.5379 258.963 66.9545 258.963 67.4773C258.963 67.8939 259.13 68.2462 259.463 68.5341C259.796 68.822 260.368 69.053 261.179 69.2273L264.338 69.8636C266.035 70.2121 267.3 70.7727 268.134 71.5455C268.967 72.3182 269.384 73.3333 269.384 74.5909C269.384 75.7348 269.046 76.7386 268.372 77.6023C267.705 78.4659 266.789 79.1402 265.622 79.625C264.463 80.1023 263.126 80.3409 261.611 80.3409C259.3 80.3409 257.459 79.8598 256.088 78.8977C254.724 77.928 253.925 76.6098 253.69 74.9432L258.452 74.6932C258.596 75.3977 258.944 75.9356 259.497 76.3068C260.05 76.6705 260.759 76.8523 261.622 76.8523C262.471 76.8523 263.152 76.6894 263.668 76.3636C264.19 76.0303 264.455 75.6023 264.463 75.0795C264.455 74.6402 264.27 74.2803 263.906 74C263.543 73.7121 262.982 73.4924 262.224 73.3409L259.202 72.7386C257.497 72.3977 256.228 71.8068 255.395 70.9659C254.569 70.125 254.156 69.053 254.156 67.75C254.156 66.6288 254.459 65.6629 255.065 64.8523C255.679 64.0417 256.539 63.4167 257.645 62.9773C258.759 62.5379 260.062 62.3182 261.554 62.3182C263.759 62.3182 265.493 62.7841 266.759 63.7159C268.031 64.6477 268.774 65.9167 268.986 67.5227ZM275.261 80.2955C274.511 80.2955 273.867 80.0303 273.33 79.5C272.799 78.9621 272.534 78.3182 272.534 77.5682C272.534 76.8258 272.799 76.1894 273.33 75.6591C273.867 75.1288 274.511 74.8636 275.261 74.8636C275.989 74.8636 276.625 75.1288 277.17 75.6591C277.716 76.1894 277.989 76.8258 277.989 77.5682C277.989 78.0682 277.86 78.5265 277.602 78.9432C277.352 79.3523 277.023 79.6818 276.614 79.9318C276.205 80.1742 275.754 80.2955 275.261 80.2955Z" fill="white"/>
<path d="M40.2685 62.4328L34.8408 57.2636C32.9293 55.4431 29.8864 55.5816 28.1482 57.5683C26.5773 59.3635 26.6235 62.0573 28.2551 63.7978L45.948 82.6702C47.0739 83.8711 48.6437 84.5524 50.2897 84.5524C53.5204 84.5524 58.8319 84.5524 64.0895 84.5524C71.2358 84.5524 76 78.5971 76 72.6419C76 72.6419 76 52.224 76 47.1194" stroke="white" stroke-width="4" stroke-linecap="round" stroke-linejoin="round"/>
<path d="M67.067 48.8208C67.067 48.8208 67.067 48.4482 67.067 47.1193C67.067 40.3133 75.9999 40.3133 75.9999 47.1193" stroke="white" stroke-width="4" stroke-linecap="round" stroke-linejoin="round"/>
<circle cx="56.7763" cy="67.7224" r="9.06234" fill="#0075FF"/>
<path d="M58.1342 48.821C58.1342 48.821 58.1342 46.3744 58.1342 43.7165C58.1342 36.9105 67.0671 36.9105 67.0671 43.7165C67.0671 44.381 67.0671 46.455 67.0671 47.1195C67.0671 48.4485 67.0671 48.821 67.0671 48.821" stroke="white" stroke-width="4" stroke-linecap="round" stroke-linejoin="round"/>
<path d="M49.2013 48.8213C49.2013 48.8213 49.2013 44.6995 49.2013 41.3771C49.2013 34.5711 58.1342 34.5711 58.1342 41.3771C58.1342 41.3771 58.1342 43.0522 58.1342 43.7167C58.1342 46.3745 58.1342 48.8213 58.1342 48.8213" stroke="white" stroke-width="4" stroke-linecap="round" stroke-linejoin="round"/>
<path d="M40.2686 62.4329V29.4664C40.2686 26.9997 42.2683 25 44.735 25C47.2017 25 49.2015 26.9967 49.2015 29.4634C49.2015 33.0089 49.2015 37.9275 49.2015 41.3769C49.2015 44.6993 49.2015 48.821 49.2015 48.821" stroke="white" stroke-width="4" stroke-linecap="round" stroke-linejoin="round"/>
<rect x="1" y="1" width="321" height="108" rx="12" stroke="white" stroke-opacity="0.8" stroke-width="2"/>
</svg>
